<?xml version="1.0" encoding="utf-8"?>
<!-- Generator: Adobe Illustrator 27.0.0, SVG Export Plug-In . SVG Version: 6.00 Build 0)  -->
<svg version="1.1" id="Layer_1" xmlns="http://www.w3.org/2000/svg" xmlns:xlink="http://www.w3.org/1999/xlink" x="0px" y="0px"
	 viewBox="0 0 1920 568.85" style="enable-background:new 0 0 1920 568.85;" xml:space="preserve">
<style type="text/css">
	.st0{fill:#3D3672;}
	.st1{fill:#8D87B7;}
	.st2{fill:#B3ADCF;}
	.st3{fill:#6B62A1;}
	.st4{fill:#D8D6E6;}
</style>
<g>
	<g>
		<path class="st0" d="M1000.38,455.72c0.7-1.29,0.63-2.8-0.17-4.03L890.45,281.94c-3.61-5.88-3.64-10.34-0.15-16.01l103.05-158.66
			c0.9-1.38,0.96-3.08,0.16-4.54c-0.8-1.48-2.28-2.36-3.96-2.36h-0.01l-3.07,0c-16.7,0.03-32.76,0.06-48.82-0.13
			c-0.03,0-0.06,0-0.08,0c-2.55,0-4.97,1.39-6.33,3.64c-12.06,19.96-24.36,37.23-36.26,53.92c-11.46,16.08-23.31,32.71-34.93,51.74
			c-0.83,1.36-1.73,2.67-2.76,4.19l-4.39,6.52l-4.52-6.97c-1.05-1.6-1.93-2.94-2.76-4.3c-11.59-18.99-23.39-35.56-34.82-51.59
			c-11.76-16.51-23.93-33.59-35.87-53.33c-1.77-2.92-3.18-3.84-6.08-3.84c-0.14,0-0.28,0-0.43,0.01l-52.56,0.1
			c-1.41,0-2.65,0.74-3.32,1.98c-0.67,1.24-0.61,2.68,0.15,3.86l103.44,159.51c3.06,4.97,3.06,11.3,0.04,16.2L705.23,452.62
			c-0.74,1.13-0.79,2.52-0.15,3.71c0.31,0.57,1.24,1.9,3.18,1.9l52.31,0.1c3.48,0.24,6.59-1.75,8.36-4.69
			c12.04-19.99,24.35-37.31,36.25-54.06c11.47-16.14,23.33-32.83,34.96-51.92l12.65-20.58l4.61,7.02c1.06,1.6,1.94,2.91,2.76,4.26
			c12.67,20.79,25.58,39.18,38.06,56.96c12.85,18.31,26.14,37.24,39.17,58.79c1.99,3.29,3.61,4.33,7.14,4.21h0.02l52.36-0.52
			C998.39,457.8,999.69,457.01,1000.38,455.72z"/>
		<path class="st0" d="M1307.25,457.84c1.69,0,3.07-1.37,3.07-3.06l0.55-262.94c0.01-2.42-0.44-2.89-0.46-2.91
			c-0.04-0.04-0.46-0.46-3.13-0.39l-47.53,0.52c-1.24,0.01-2.26,1.04-2.26,2.29v38.39l-5.54-5.04c-2.73-2.48-5.35-5-7.93-7.49
			c-5.43-5.23-10.55-10.16-16.24-14.32c-19.88-14.52-44.37-21.61-69.25-21.61c-31.85,0-64.31,11.62-88.53,34.16
			c-35.16,32.72-50.66,74.71-46.08,124.8c5.6,61.27,50.68,111.71,109.61,122.67c47.28,8.8,85.85-4.12,114.6-38.39
			c0.57-0.68,1.23-1.27,2.29-2.18l7.38-6.57v36.74c0,2.95,2.4,5.35,5.35,5.35H1307.25z M1231.44,389.31
			c-16.63,16.64-39.52,25.8-64.45,25.8c-0.07,0-0.14,0-0.21,0c-52.31-0.11-90.39-38.56-90.57-91.42
			c-0.08-25.62,9.18-49.06,26.1-66.01c16.67-16.7,39.61-25.9,64.61-25.9c0.04,0,0.08,0,0.12,0c51.5,0.06,90.43,39.38,90.55,91.48
			C1257.65,348.92,1248.37,372.38,1231.44,389.31z"/>
		<path class="st0" d="M1475.26,544.28c20.7-16.76,36.36-39.81,47.88-70.45l104.37-279.74c0.45-1.19,0.28-2.47-0.43-3.51
			c-0.72-1.05-1.87-1.65-3.14-1.66l-43.32-0.23c-7.12-0.73-7.9,0.43-9.22,4.22c-16.75,48.11-33.7,96.16-50.65,144.2l-8.95,25.38
			c-1.74,4.94-3.54,9.85-5.54,15.31l-6,16.45l-5.06-11.47c-0.99-2.23-1.75-3.93-2.45-5.65l-14.38-35
			c-20.27-49.3-40.54-98.61-60.62-147.99c-1.41-3.46-4.74-5.66-8.53-5.66c-0.11,0-0.21,0-0.32,0l-47.04,0.12
			c-1.01,0-1.9,0.49-2.44,1.33c-0.55,0.84-0.64,1.85-0.24,2.77l94.1,216.19c4.93,13.26,8.82,22.23,11.65,28.79
			c8.2,18.96,8.18,20.05-0.84,38.81c-8.75,18.19-19,29.76-35.39,39.94c-13.8,8.58-21.17,16.93-23.91,27.08l-4.31,16.07
			c-0.84,3.09-0.57,5.93,0.7,7.58c0.88,1.15,2.38,1.67,4.13,1.68C1433.06,568.85,1453.98,561.5,1475.26,544.28z"/>
		<path class="st0" d="M1919.92,378.17c-0.02-31.79-0.04-64.65-0.61-96.96c-0.44-24.84-8.32-46.72-23.4-65.04
			c-18.9-22.93-44.24-34.26-77.48-34.64c-36.31-0.5-63.15,11.67-81.76,36.98c-0.74,0.99-1.67,1.45-2.49,1.87
			c-0.32,0.16-0.7,0.35-1.15,0.61l-4.98,2.92l-0.04-14.12c-0.04-6.38-0.08-12.46,0.12-18.53c0.03-0.78-0.23-1.49-0.73-1.99
			c-0.34-0.34-1.09-0.97-1.87-0.73c-10.74,0.18-21.47,0.16-32.22,0.11l-13.28-0.02c-2.67,0-5.48,0-6.08,0.37
			c-0.53,0.8-0.44,5.39-0.34,10.25c0.07,4.06,0.18,9.28,0.07,16l-0.26,204.21c0,6.02-0.18,11.27-0.33,15.83
			c-0.36,10.71-0.59,17.79,2.06,20.54c1.57,1.62,4.77,2.37,10.09,2.37h34.45c4.61,0,8.37-3.75,8.38-8.37l0.12-132.08
			c0.09-12.86,1.07-23.15,3.1-32.41c6.46-29.55,24.8-47.81,53.03-52.8c11.26-1.99,23.85-1.92,35.46,0.19
			c9.45,1.72,17.59,5.21,24.21,10.37c19.92,15.54,22.67,38.85,22.73,59.6l0.07,151.9c0.01,1.76,1.44,3.19,3.2,3.19h44.65
			c2.96,0,5.37-2.43,5.37-5.42v-7.49c0.01-9.66,0.02-19.09-0.01-28.53C1919.93,403.64,1919.93,390.91,1919.92,378.17z"/>
	</g>
	<path class="st1" d="M369.9,81.18c28.5,36.88,54.2,77.64,76.37,121.14c2.15,4.21,6.26,5.56,9.3,5.31c3.1-0.2,6.98-1.99,8.59-6.45
		c5.55-15.4,10.55-30.93,14.87-46.15c3.98-14.06,7.55-28.36,10.6-42.52c2.79-12.95-1.34-26.59-10.79-35.6
		C433.05,33.27,373.24,5.97,310.45,0.02C310.26,0.01,310.08,0,309.89,0c-2.43,0-4.04,1.56-4.75,3.09c-0.78,1.66-0.9,4.13,1.07,6.08
		C328.6,31.23,350.03,55.46,369.9,81.18z"/>
	<path class="st2" d="M529.59,144.8c-1.23-2.29-3.27-2.65-4.42-2.65c-0.25,0-0.47,0.02-0.61,0.04c-0.79,0.09-3.43,0.64-4.21,3.68
		c-1.43,5.53-2.94,11.14-4.56,16.84c-8.48,29.94-19.18,60.14-31.79,89.74c-5.32,12.5-5.69,26.38-1.02,39.09
		c14.37,39.17,26.28,80.37,35.38,122.45c0.54,2.52,2.53,3.69,4.22,3.94c0.81,0.11,3.5,0.28,5.03-2.48
		c23.17-41.76,35.41-89.19,35.41-137.17C563.02,231.78,551.46,185.63,529.59,144.8z"/>
	<path class="st3" d="M337.67,104.63C311.63,70.75,282.98,39.92,252.51,13c-7.95-7.03-18.05-10.78-28.29-10.78
		c-3.4,0-6.81,0.41-10.17,1.26C88.02,35.19,0,148.19,0,278.29c0,118.36,74.62,225.3,185.67,266.11c14.92,5.48,31.5,2.33,43.28-8.23
		c81.05-72.68,145.8-154.2,192.43-242.28c7.73-14.61,8.17-32.41,1.17-47.63C398.87,194.75,370.32,147.1,337.67,104.63z"/>
	<path class="st4" d="M277.53,548.54c-1.65,1.54-2.16,3.71-1.36,5.81c0.81,2.12,2.66,3.42,4.95,3.47c2.04,0.05,4.08,0.07,6.12,0.07
		c71.23,0,139.33-26.56,191.77-74.79c9.46-8.71,13.89-22.07,11.54-34.87c-6.75-36.81-15.66-72.98-26.47-107.51
		c-1.19-3.79-4.25-6.32-8.19-6.76c-0.35-0.04-0.7-0.06-1.07-0.06c-2.88,0-6.34,1.26-8.44,4.86
		C402.59,414.06,345.78,484.64,277.53,548.54z"/>
</g>
</svg>