<svg width="1920" height="569" viewBox="0 0 1920 569" fill="none" xmlns="http://www.w3.org/2000/svg">
<path d="M1000.38 455.72C1001.08 454.43 1001.01 452.92 1000.21 451.69L890.45 281.94C886.84 276.06 886.81 271.6 890.3 265.93L993.35 107.27C994.25 105.89 994.31 104.19 993.51 102.73C992.71 101.25 991.23 100.37 989.55 100.37H989.54H986.47C969.77 100.4 953.71 100.43 937.65 100.24C937.62 100.24 937.59 100.24 937.57 100.24C935.02 100.24 932.6 101.63 931.24 103.88C919.18 123.84 906.88 141.11 894.98 157.8C883.52 173.88 871.67 190.51 860.05 209.54C859.22 210.9 858.32 212.21 857.29 213.73L852.9 220.25L848.38 213.28C847.33 211.68 846.45 210.34 845.62 208.98C834.03 189.99 822.23 173.42 810.8 157.39C799.04 140.88 786.87 123.8 774.93 104.06C773.16 101.14 771.75 100.22 768.85 100.22C768.71 100.22 768.57 100.22 768.42 100.23L715.86 100.33C714.45 100.33 713.21 101.07 712.54 102.31C711.87 103.55 711.93 104.99 712.69 106.17L816.13 265.68C819.19 270.65 819.19 276.98 816.17 281.88L705.23 452.62C704.49 453.75 704.44 455.14 705.08 456.33C705.39 456.9 706.32 458.23 708.26 458.23L760.57 458.33C764.05 458.57 767.16 456.58 768.93 453.64C780.97 433.65 793.28 416.33 805.18 399.58C816.65 383.44 828.51 366.75 840.14 347.66L852.79 327.08L857.4 334.1C858.46 335.7 859.34 337.01 860.16 338.36C872.83 359.15 885.74 377.54 898.22 395.32C911.07 413.63 924.36 432.56 937.39 454.11C939.38 457.4 941 458.44 944.53 458.32H944.55L996.91 457.8C998.39 457.8 999.69 457.01 1000.38 455.72Z" fill="white"/>
<path d="M1307.25 457.84C1308.94 457.84 1310.32 456.47 1310.32 454.78L1310.87 191.84C1310.88 189.42 1310.43 188.95 1310.41 188.93C1310.37 188.89 1309.95 188.47 1307.28 188.54L1259.75 189.06C1258.51 189.07 1257.49 190.1 1257.49 191.35V229.74L1251.95 224.7C1249.22 222.22 1246.6 219.7 1244.02 217.21C1238.59 211.98 1233.47 207.05 1227.78 202.89C1207.9 188.37 1183.41 181.28 1158.53 181.28C1126.68 181.28 1094.22 192.9 1070 215.44C1034.84 248.16 1019.34 290.15 1023.92 340.24C1029.52 401.51 1074.6 451.95 1133.53 462.91C1180.81 471.71 1219.38 458.79 1248.13 424.52C1248.7 423.84 1249.36 423.25 1250.42 422.34L1257.8 415.77V452.51C1257.8 455.46 1260.2 457.86 1263.15 457.86H1307.25V457.84ZM1231.44 389.31C1214.81 405.95 1191.92 415.11 1166.99 415.11C1166.92 415.11 1166.85 415.11 1166.78 415.11C1114.47 415 1076.39 376.55 1076.21 323.69C1076.13 298.07 1085.39 274.63 1102.31 257.68C1118.98 240.98 1141.92 231.78 1166.92 231.78C1166.96 231.78 1167 231.78 1167.04 231.78C1218.54 231.84 1257.47 271.16 1257.59 323.26C1257.65 348.92 1248.37 372.38 1231.44 389.31Z" fill="white"/>
<path d="M1475.26 544.28C1495.96 527.52 1511.62 504.47 1523.14 473.83L1627.51 194.09C1627.96 192.9 1627.79 191.62 1627.08 190.58C1626.36 189.53 1625.21 188.93 1623.94 188.92L1580.62 188.69C1573.5 187.96 1572.72 189.12 1571.4 192.91C1554.65 241.02 1537.7 289.07 1520.75 337.11L1511.8 362.49C1510.06 367.43 1508.26 372.34 1506.26 377.8L1500.26 394.25L1495.2 382.78C1494.21 380.55 1493.45 378.85 1492.75 377.13L1478.37 342.13C1458.1 292.83 1437.83 243.52 1417.75 194.14C1416.34 190.68 1413.01 188.48 1409.22 188.48C1409.11 188.48 1409.01 188.48 1408.9 188.48L1361.86 188.6C1360.85 188.6 1359.96 189.09 1359.42 189.93C1358.87 190.77 1358.78 191.78 1359.18 192.7L1453.28 408.89C1458.21 422.15 1462.1 431.12 1464.93 437.68C1473.13 456.64 1473.11 457.73 1464.09 476.49C1455.34 494.68 1445.09 506.25 1428.7 516.43C1414.9 525.01 1407.53 533.36 1404.79 543.51L1400.48 559.58C1399.64 562.67 1399.91 565.51 1401.18 567.16C1402.06 568.31 1403.56 568.83 1405.31 568.84C1433.06 568.85 1453.98 561.5 1475.26 544.28Z" fill="white"/>
<path d="M1919.92 378.17C1919.9 346.38 1919.88 313.52 1919.31 281.21C1918.87 256.37 1910.99 234.49 1895.91 216.17C1877.01 193.24 1851.67 181.91 1818.43 181.53C1782.12 181.03 1755.28 193.2 1736.67 218.51C1735.93 219.5 1735 219.96 1734.18 220.38C1733.86 220.54 1733.48 220.73 1733.03 220.99L1728.05 223.91L1728.01 209.79C1727.97 203.41 1727.93 197.33 1728.13 191.26C1728.16 190.48 1727.9 189.77 1727.4 189.27C1727.06 188.93 1726.31 188.3 1725.53 188.54C1714.79 188.72 1704.06 188.7 1693.31 188.65L1680.03 188.63C1677.36 188.63 1674.55 188.63 1673.95 189C1673.42 189.8 1673.51 194.39 1673.61 199.25C1673.68 203.31 1673.79 208.53 1673.68 215.25L1673.42 419.46C1673.42 425.48 1673.24 430.73 1673.09 435.29C1672.73 446 1672.5 453.08 1675.15 455.83C1676.72 457.45 1679.92 458.2 1685.24 458.2H1719.69C1724.3 458.2 1728.06 454.45 1728.07 449.83L1728.19 317.75C1728.28 304.89 1729.26 294.6 1731.29 285.34C1737.75 255.79 1756.09 237.53 1784.32 232.54C1795.58 230.55 1808.17 230.62 1819.78 232.73C1829.23 234.45 1837.37 237.94 1843.99 243.1C1863.91 258.64 1866.66 281.95 1866.72 302.7L1866.79 454.6C1866.8 456.36 1868.23 457.79 1869.99 457.79H1914.64C1917.6 457.79 1920.01 455.36 1920.01 452.37V444.88C1920.02 435.22 1920.03 425.79 1920 416.35C1919.93 403.64 1919.93 390.91 1919.92 378.17Z" fill="white"/>
<path d="M369.9 81.18C398.4 118.06 424.1 158.82 446.27 202.32C448.42 206.53 452.53 207.88 455.57 207.63C458.67 207.43 462.55 205.64 464.16 201.18C469.71 185.78 474.71 170.25 479.03 155.03C483.01 140.97 486.58 126.67 489.63 112.51C492.42 99.56 488.29 85.92 478.84 76.91C433.05 33.27 373.24 5.97 310.45 0.02C310.26 0.01 310.08 0 309.89 0C307.46 0 305.85 1.56 305.14 3.09C304.36 4.75 304.24 7.22 306.21 9.17C328.6 31.23 350.03 55.46 369.9 81.18Z" fill="white"/>
<path d="M529.59 144.8C528.36 142.51 526.32 142.15 525.17 142.15C524.92 142.15 524.7 142.17 524.56 142.19C523.77 142.28 521.13 142.83 520.35 145.87C518.92 151.4 517.41 157.01 515.79 162.71C507.31 192.65 496.61 222.85 484 252.45C478.68 264.95 478.31 278.83 482.98 291.54C497.35 330.71 509.26 371.91 518.36 413.99C518.9 416.51 520.89 417.68 522.58 417.93C523.39 418.04 526.08 418.21 527.61 415.45C550.78 373.69 563.02 326.26 563.02 278.28C563.02 231.78 551.46 185.63 529.59 144.8Z" fill="white"/>
<path d="M337.67 104.63C311.63 70.75 282.98 39.92 252.51 13C244.56 5.97 234.46 2.22 224.22 2.22C220.82 2.22 217.41 2.63 214.05 3.48C88.02 35.19 0 148.19 0 278.29C0 396.65 74.62 503.59 185.67 544.4C200.59 549.88 217.17 546.73 228.95 536.17C310 463.49 374.75 381.97 421.38 293.89C429.11 279.28 429.55 261.48 422.55 246.26C398.87 194.75 370.32 147.1 337.67 104.63Z" fill="white"/>
<path d="M277.53 548.54C275.88 550.08 275.37 552.25 276.17 554.35C276.98 556.47 278.83 557.77 281.12 557.82C283.16 557.87 285.2 557.89 287.24 557.89C358.47 557.89 426.57 531.33 479.01 483.1C488.47 474.39 492.9 461.03 490.55 448.23C483.8 411.42 474.89 375.25 464.08 340.72C462.89 336.93 459.83 334.4 455.89 333.96C455.54 333.92 455.19 333.9 454.82 333.9C451.94 333.9 448.48 335.16 446.38 338.76C402.59 414.06 345.78 484.64 277.53 548.54Z" fill="white"/>
</svg>
